# xmcd CD database file
#
# Track frame offsets:
#	150
#	14225
#	27594
#	39960
#	56667
#	69022
#	80025
#	92859
#	106427
#	117090
#	131625
#	145505
#	159986
#
# Disc length: 2181 seconds
#
# Revision: 0
# Processed by: cddbd v1.5.2PL0 Copyright (c) Steve Scherf et al.
# Submitted via: CDex 2.06
#
DISCID=ab08830d
DTITLE=Stoney Joe - Hot Jerky
DYEAR=2013
DGENRE=Country
TTITLE0=Dreamin' Tomorrow
TTITLE1=Stars, Moon and Seas
TTITLE2=Walk Together
TTITLE3=Mariah
TTITLE4=Big Rock
TTITLE5=Cold Morning
TTITLE6=Ringin' Bell
TTITLE7=The Devil's Play Thing
TTITLE8=Lonesome Joe
TTITLE9=Sparrow Song
TTITLE10=Big Blue World
TTITLE11=Kalamunda Hills
TTITLE12=Devil's Saloon
EXTD=YEAR: 2013
EXTT0=
EXTT1=
EXTT2=
EXTT3=
EXTT4=
EXTT5=
EXTT6=
EXTT7=
EXTT8=
EXTT9=
EXTT10=
EXTT11=
EXTT12=
PLAYORDER=
